<svg width="161" height="161" viewBox="0 0 161 161" fill="none" xmlns="http://www.w3.org/2000/svg">
<path d="M135.373 123.787C135.699 124.681 135.762 125.65 135.556 126.579C135.35 127.507 134.883 128.358 134.211 129.031L119.211 144.031C118.747 144.496 118.195 144.866 117.588 145.118C116.981 145.37 116.331 145.5 115.673 145.5C115.509 145.509 115.344 145.509 115.18 145.5C114.443 145.427 113.733 145.192 113.098 144.812C112.464 144.432 111.922 143.915 111.511 143.3L83.9671 101.975L70.6734 115.244V130.5C70.6728 131.824 70.1468 133.094 69.2109 134.031C69.2109 134.031 60.4609 142.819 59.2859 143.956C58.7974 144.468 58.2049 144.868 57.5484 145.131C56.3247 145.63 54.9535 145.623 53.7344 145.114C52.5153 144.604 51.5474 143.633 51.0421 142.412L51.0046 142.319L41.8171 119.344L18.7984 110.137C18.0305 109.83 17.3508 109.337 16.8202 108.703C16.2896 108.068 15.9246 107.312 15.758 106.502C15.5914 105.692 15.6284 104.853 15.8656 104.061C16.1028 103.269 16.5328 102.548 17.1171 101.962L27.1171 91.9623C27.5841 91.4959 28.1387 91.1265 28.7491 90.8755C29.3594 90.6245 30.0134 90.4968 30.6734 90.4998H45.9234L59.2171 77.2061L17.8984 49.6561C17.2821 49.2458 16.7646 48.7039 16.3833 48.0693C16.002 47.4347 15.7664 46.7234 15.6934 45.9867C15.6205 45.2499 15.712 44.5062 15.9615 43.8092C16.2109 43.1122 16.6121 42.4792 17.1359 41.9561L32.1359 26.9561C32.8088 26.2835 33.6596 25.8169 34.5884 25.6109C35.5173 25.405 36.4856 25.4684 37.3796 25.7936L91.0921 45.3248L110.798 25.6186C114.08 22.3365 118.532 20.4927 123.173 20.4927C125.472 20.4927 127.747 20.9453 129.871 21.8249C131.994 22.7044 133.923 23.9935 135.548 25.6186C137.174 27.2437 138.463 29.173 139.342 31.2963C140.222 33.4196 140.674 35.6953 140.674 37.9936C140.674 40.2918 140.222 42.5676 139.342 44.6909C138.463 46.8142 137.174 48.7435 135.548 50.3686L115.842 70.0748L135.373 123.787Z" fill="white"/>
</svg>
