<svg width="161" height="160" viewBox="0 0 161 160" fill="none" xmlns="http://www.w3.org/2000/svg">
<path d="M116.331 71.3815L134.544 54.244L134.65 54.1377C138.401 50.3866 140.509 45.2989 140.509 39.994C140.509 34.689 138.401 29.6014 134.65 25.8502C130.899 22.0991 125.811 19.9917 120.506 19.9917C115.201 19.9917 110.114 22.0991 106.363 25.8502C106.363 25.8877 106.294 25.919 106.256 25.9565L89.1188 44.169L37.2438 25.294C36.3497 24.9688 35.3814 24.9054 34.4526 25.1114C33.5237 25.3173 32.6729 25.7839 32 26.4565L17 41.4565C16.4774 41.9796 16.0772 42.6121 15.8284 43.3085C15.5796 44.0049 15.4884 44.7478 15.5614 45.4837C15.6343 46.2196 15.8696 46.9302 16.2502 47.5642C16.6308 48.1982 17.1473 48.7399 17.7625 49.1502L57.6938 75.769L48.4313 85.0002H35.5C34.1757 85.0008 32.9057 85.5268 31.9688 86.4627L16.9688 101.463C16.3838 102.046 15.9526 102.766 15.7136 103.557C15.4747 104.348 15.4355 105.186 15.5996 105.995C15.7636 106.805 16.1259 107.562 16.6538 108.197C17.1818 108.833 17.8591 109.328 18.625 109.638L41.6375 118.844L50.825 141.813L50.8625 141.913C51.1804 142.682 51.6853 143.36 52.3314 143.885C52.9776 144.41 53.7445 144.765 54.5627 144.918C55.3809 145.071 56.2244 145.018 57.0168 144.763C57.8091 144.508 58.5252 144.059 59.1 143.456L74.0188 128.531C74.4856 128.069 74.8567 127.519 75.1109 126.913C75.365 126.307 75.4973 125.657 75.5 125V112.069L84.725 102.844L111.344 142.775C111.754 143.39 112.296 143.907 112.93 144.288C113.564 144.668 114.274 144.903 115.01 144.976C115.746 145.049 116.489 144.958 117.185 144.709C117.882 144.461 118.514 144.06 119.038 143.538L134.038 128.538C134.71 127.865 135.177 127.014 135.383 126.085C135.589 125.156 135.525 124.188 135.2 123.294L116.331 71.3815ZM116.288 132.15L89.6688 92.2252C89.2607 91.6053 88.7198 91.084 88.0852 90.6992C87.4506 90.3143 86.7384 90.0756 86 90.0002C85.8313 90.0002 85.6688 90.0002 85.5063 90.0002C84.8491 90.0005 84.1983 90.1304 83.5913 90.3824C82.9843 90.6345 82.433 91.0037 81.9688 91.469L66.9688 106.469C66.0306 107.405 65.5023 108.675 65.5 110V122.931L57.3313 131.1L50.1438 113.125C49.8923 112.501 49.5175 111.934 49.0417 111.459C48.566 110.983 47.9991 110.608 47.375 110.356L29.4125 103.169L37.575 95.0002H50.5C51.1568 95.0007 51.8073 94.8719 52.4143 94.6209C53.0213 94.37 53.5729 94.0019 54.0375 93.5377L69.0376 78.5377C69.5614 78.0146 69.9625 77.3817 70.212 76.6846C70.4614 75.9876 70.553 75.2439 70.48 74.5071C70.4071 73.7704 70.1714 73.0591 69.7901 72.4245C69.4088 71.7899 68.8913 71.248 68.275 70.8377L28.35 44.2127L36.7875 35.7815L88.8 54.694C89.7165 55.0307 90.7114 55.0918 91.6621 54.8697C92.6128 54.6475 93.4777 54.1519 94.15 53.444L113.488 32.8752C115.372 31.0455 117.901 30.0309 120.528 30.0507C123.155 30.0705 125.669 31.123 127.526 32.9809C129.383 34.8388 130.434 37.3528 130.453 39.9796C130.471 42.6063 129.456 45.135 127.625 47.019L107.081 66.3502C106.373 67.0226 105.878 67.8875 105.656 68.8382C105.434 69.7889 105.495 70.7838 105.831 71.7002L124.744 123.713L116.288 132.15Z" fill="white"/>
</svg>
