<svg width="161" height="161" viewBox="0 0 161 161" fill="none" xmlns="http://www.w3.org/2000/svg">
<g clip-path="url(#clip0_26_3027)">
<path d="M34.7107 103.444L52.1295 79.5625C57.3785 84.9505 60.4119 92.1138 60.6285 99.6329C60.8451 107.152 58.2292 114.478 53.299 120.159C48.3689 125.84 41.4844 129.462 34.0098 130.307C26.5352 131.152 19.016 129.158 12.9423 124.72C6.86866 120.282 2.68373 113.725 1.21688 106.347C-0.249973 98.9691 1.1083 91.3095 5.02252 84.886C8.93675 78.4625 15.1213 73.7438 22.3505 71.665C29.5797 69.5863 37.3261 70.2992 44.0545 73.6625L26.6357 97.5562C26.2205 98.0844 25.9159 98.6909 25.7402 99.3394C25.5646 99.9879 25.5214 100.665 25.6134 101.331C25.7053 101.996 25.9304 102.637 26.2753 103.213C26.6202 103.79 27.0777 104.291 27.6206 104.687C28.1635 105.083 28.7807 105.365 29.4351 105.517C30.0896 105.669 30.768 105.688 31.4298 105.572C32.0916 105.455 32.7232 105.207 33.2869 104.842C33.8506 104.476 34.3349 104.001 34.7107 103.444ZM130.673 70.5C127.058 70.4984 123.473 71.1528 120.092 72.4312L134.992 98C135.371 98.5685 135.629 99.2085 135.75 99.8806C135.872 100.553 135.855 101.243 135.7 101.908C135.544 102.573 135.254 103.199 134.848 103.748C134.441 104.297 133.926 104.757 133.335 105.099C132.744 105.441 132.089 105.658 131.411 105.738C130.732 105.817 130.045 105.756 129.391 105.56C128.737 105.363 128.13 105.035 127.608 104.594C127.085 104.154 126.659 103.611 126.354 103L111.461 77.4625C106.042 81.9829 102.389 88.269 101.146 95.2156C99.9033 102.162 101.149 109.325 104.664 115.444C108.18 121.563 113.74 126.247 120.367 128.673C126.994 131.098 134.264 131.109 140.899 128.705C147.533 126.301 153.108 121.634 156.643 115.526C160.178 109.418 161.446 102.26 160.225 95.3092C159.004 88.3586 155.371 82.061 149.967 77.5235C144.562 72.986 137.73 70.4991 130.673 70.5ZM104.379 45.5H120.673C121.999 45.5 123.271 46.0268 124.209 46.9645C125.146 47.9021 125.673 49.1739 125.673 50.5C125.673 51.8261 126.2 53.0979 127.138 54.0355C128.075 54.9732 129.347 55.5 130.673 55.5C131.999 55.5 133.271 54.9732 134.209 54.0355C135.146 53.0979 135.673 51.8261 135.673 50.5C135.673 46.5218 134.093 42.7064 131.28 39.8934C128.467 37.0804 124.651 35.5 120.673 35.5H95.6732C94.7965 35.502 93.9357 35.7345 93.1772 36.1741C92.4187 36.6138 91.7891 37.2452 91.3516 38.0049C90.9141 38.7647 90.6841 39.6261 90.6846 40.5028C90.6851 41.3796 90.9161 42.2407 91.3545 43L98.6357 55.5H62.7107L52.492 38C52.0541 37.2416 51.4247 36.6115 50.6668 36.1727C49.9089 35.734 49.049 35.502 48.1732 35.5H30.6732C29.3472 35.5 28.0754 36.0268 27.1377 36.9645C26.2 37.9021 25.6732 39.1739 25.6732 40.5C25.6732 41.8261 26.2 43.0979 27.1377 44.0355C28.0754 44.9732 29.3472 45.5 30.6732 45.5H45.3045L53.8732 60.1938L44.0545 73.6625C47.0581 75.1622 49.7879 77.1567 52.1295 79.5625L59.3732 69.625L78.8545 103C79.1589 103.611 79.5854 104.154 80.1076 104.594C80.6298 105.035 81.2367 105.363 81.8908 105.56C82.5449 105.756 83.2324 105.817 83.9108 105.738C84.5892 105.658 85.2442 105.441 85.8353 105.099C86.4265 104.757 86.9412 104.297 87.3478 103.748C87.7545 103.199 88.0443 102.573 88.1996 101.908C88.3548 101.243 88.3721 100.553 88.2504 99.8806C88.1287 99.2085 87.8706 98.5685 87.492 98L68.542 65.5H104.467L111.461 77.4812C114.036 75.3279 116.953 73.621 120.092 72.4312L104.379 45.5Z" fill="white"/>
</g>
<defs>
<clipPath id="clip0_26_3027">
<rect width="160" height="160" fill="white" transform="translate(0.67334 0.5)"/>
</clipPath>
</defs>
</svg>
