<svg width="161" height="160" viewBox="0 0 161 160" fill="none" xmlns="http://www.w3.org/2000/svg">
<g clip-path="url(#clip0_26_3007)">
<path d="M130.5 70C126.885 69.9984 123.3 70.6528 119.919 71.9312L104.206 45H120.5C121.826 45 123.098 45.5268 124.036 46.4645C124.973 47.4021 125.5 48.6739 125.5 50C125.5 51.3261 126.027 52.5979 126.965 53.5355C127.902 54.4732 129.174 55 130.5 55C131.826 55 133.098 54.4732 134.036 53.5355C134.973 52.5979 135.5 51.3261 135.5 50C135.5 46.0218 133.92 42.2064 131.107 39.3934C128.294 36.5804 124.478 35 120.5 35H95.5001C94.6234 35.002 93.7626 35.2345 93.0041 35.6741C92.2456 36.1138 91.616 36.7452 91.1785 37.5049C90.741 38.2647 90.511 39.1261 90.5115 40.0028C90.512 40.8796 90.743 41.7407 91.1814 42.5L98.4626 55H62.5376L52.3189 37.5C51.881 36.7416 51.2516 36.1115 50.4937 35.6727C49.7357 35.234 48.8759 35.002 48.0001 35H30.5001C29.174 35 27.9023 35.5268 26.9646 36.4645C26.0269 37.4021 25.5001 38.6739 25.5001 40C25.5001 41.3261 26.0269 42.5979 26.9646 43.5355C27.9023 44.4732 29.174 45 30.5001 45H45.1314L53.7001 59.6938L43.8814 73.1625C37.1352 69.7865 29.3669 69.0684 22.1162 71.1506C14.8656 73.2328 8.6619 77.9633 4.73498 84.4044C0.808071 90.8454 -0.55542 98.5268 0.914793 105.926C2.38501 113.325 6.58159 119.902 12.6727 124.352C18.7638 128.802 26.3047 130.802 33.8006 129.954C41.2965 129.106 48.2002 125.472 53.1432 119.774C58.0861 114.075 60.7075 106.727 60.4877 99.1868C60.2679 91.6462 57.2229 84.4635 51.9564 79.0625L59.2001 69.125L78.6814 102.5C78.9858 103.111 79.4123 103.654 79.9345 104.094C80.4567 104.535 81.0636 104.863 81.7177 105.06C82.3718 105.256 83.0593 105.317 83.7377 105.238C84.4161 105.158 85.0711 104.941 85.6622 104.599C86.2533 104.257 86.7681 103.797 87.1747 103.248C87.5813 102.699 87.8712 102.073 88.0264 101.408C88.1817 100.743 88.199 100.053 88.0773 99.3806C87.9556 98.7085 87.6975 98.0685 87.3189 97.5L68.3689 65H104.294L111.288 76.9812C105.873 81.5067 102.227 87.7961 100.991 94.7436C99.7542 101.691 101.007 108.852 104.527 114.968C108.048 121.084 113.612 125.762 120.241 128.182C126.87 130.601 134.14 130.606 140.772 128.196C147.405 125.786 152.975 121.115 156.505 115.005C160.034 108.894 161.297 101.735 160.07 94.7853C158.843 87.836 155.206 81.5416 149.798 77.0085C144.39 72.4753 137.557 69.9938 130.5 70ZM50.5001 100C50.5013 104.278 49.1309 108.443 46.59 111.885C44.0492 115.326 40.4718 117.862 36.3833 119.121C32.2948 120.379 27.9105 120.293 23.8743 118.876C19.838 117.459 16.3626 114.785 13.9582 111.247C11.5538 107.709 10.3472 103.493 10.5156 99.2182C10.684 94.9438 12.2185 90.8359 14.8938 87.4978C17.5691 84.1598 21.2442 81.7675 25.3794 80.6722C29.5146 79.5769 33.892 79.8364 37.8689 81.4125L26.4626 97.0375C26.0473 97.5657 25.7428 98.1721 25.5671 98.8207C25.3915 99.4692 25.3483 100.146 25.4402 100.812C25.5322 101.478 25.7573 102.118 26.1022 102.694C26.4471 103.271 26.9046 103.772 27.4475 104.168C27.9904 104.564 28.6075 104.846 29.262 104.998C29.9165 105.15 30.5949 105.169 31.2566 105.053C31.9184 104.937 32.5501 104.689 33.1138 104.323C33.6775 103.957 34.1618 103.482 34.5376 102.925L45.9439 87.3C48.8934 90.8746 50.5045 95.3656 50.5001 100ZM130.5 120C126.539 119.997 122.668 118.818 119.377 116.612C116.087 114.406 113.526 111.272 112.019 107.609C110.512 103.945 110.127 99.9168 110.913 96.0341C111.698 92.1515 113.619 88.5896 116.431 85.8L126.181 102.5C126.486 103.111 126.912 103.654 127.434 104.094C127.957 104.535 128.564 104.863 129.218 105.06C129.872 105.256 130.559 105.317 131.238 105.238C131.916 105.158 132.571 104.941 133.162 104.599C133.753 104.257 134.268 103.797 134.675 103.248C135.081 102.699 135.371 102.073 135.526 101.408C135.682 100.743 135.699 100.053 135.577 99.3806C135.456 98.7085 135.197 98.0685 134.819 97.5L125.063 80.7563C127.814 79.9774 130.7 79.7976 133.526 80.2287C136.353 80.6599 139.054 81.692 141.448 83.2557C143.842 84.8193 145.872 86.878 147.403 89.2929C148.934 91.7079 149.929 94.4229 150.321 97.2551C150.714 100.087 150.494 102.971 149.678 105.711C148.861 108.451 147.467 110.984 145.588 113.14C143.71 115.295 141.391 117.023 138.788 118.206C136.186 119.39 133.359 120.001 130.5 120Z" fill="white"/>
</g>
<defs>
<clipPath id="clip0_26_3007">
<rect width="160" height="160" fill="white" transform="translate(0.5)"/>
</clipPath>
</defs>
</svg>
