<svg width="105" height="41" viewBox="0 0 105 41" fill="none" xmlns="http://www.w3.org/2000/svg">
<rect width="105" height="41" fill="#DD3030"/>
<path d="M17.8594 33L14.875 20.6875L14.1719 17.1562H13.9844L14.1719 20.6875V33H9.95312V8.35938H15.3906L18.7188 22.0938L19.0781 25.6094H19.2656L19.6094 22.0938L22.9688 8.35938H28.4219V33H24.1875V20.6875L24.3906 17.1562H24.1875L23.4844 20.6875L20.5156 33H17.8594ZM42.6894 26.6562C42.6894 28.9583 42.1685 30.651 41.1269 31.7344C40.0852 32.8177 38.4967 33.3594 36.3612 33.3594C34.2258 33.3594 32.6321 32.8229 31.58 31.75C30.5383 30.6667 30.0175 28.9688 30.0175 26.6562V14.7031C30.0175 12.401 30.5383 10.7135 31.58 9.64062C32.6321 8.55729 34.2258 8.01562 36.3612 8.01562C38.4967 8.01562 40.0852 8.55208 41.1269 9.625C42.1685 10.6979 42.6894 12.3906 42.6894 14.7031V26.6562ZM38.4394 14.7031C38.4394 13.5469 38.2623 12.7604 37.9081 12.3438C37.554 11.9271 37.0383 11.7188 36.3612 11.7188C35.6529 11.7188 35.1217 11.9271 34.7675 12.3438C34.4237 12.7604 34.2519 13.5469 34.2519 14.7031V26.6562C34.2519 27.8125 34.4237 28.599 34.7675 29.0156C35.1217 29.4323 35.6529 29.6406 36.3612 29.6406C37.0487 29.6406 37.5644 29.4323 37.9081 29.0156C38.2623 28.599 38.4394 27.8125 38.4394 26.6562V14.7031ZM56.785 8.35938V26.8281C56.785 29.0469 56.259 30.6927 55.2069 31.7656C54.1652 32.8281 52.5767 33.3594 50.4412 33.3594C48.3058 33.3594 46.7173 32.8281 45.6756 31.7656C44.634 30.6927 44.1131 29.0469 44.1131 26.8281V8.35938H48.3319V26.8281C48.3319 27.8906 48.509 28.625 48.8631 29.0312C49.2173 29.4375 49.7433 29.6406 50.4412 29.6406C51.1496 29.6406 51.6756 29.4375 52.0194 29.0312C52.3735 28.625 52.5506 27.8906 52.5506 26.8281V8.35938H56.785ZM58.5681 33V8.35938H63.3025L67.6931 23.8438H67.8806L67.3338 20.3281V8.35938H71.5838V33H66.8181L62.4431 17.4844H62.24L62.7869 21.0312V33H58.5681ZM71.9606 8.35938H84.2731V12.0781H80.2106V33H75.9919V12.0781H71.9606V8.35938ZM91.8688 33H87.6344V24.3906L82.7125 8.35938H87.1031L89.65 18.9219H89.8531L92.3688 8.35938H96.7906L91.8688 24.3906V33Z" fill="white"/>
</svg>
