<svg width="161" height="160" viewBox="0 0 161 160" fill="none" xmlns="http://www.w3.org/2000/svg">
<path d="M95.5001 55C99.4557 55 103.322 53.827 106.611 51.6294C109.9 49.4318 112.464 46.3082 113.978 42.6537C115.491 38.9992 115.887 34.9778 115.116 31.0982C114.344 27.2186 112.439 23.6549 109.642 20.8579C106.845 18.0608 103.281 16.156 99.4019 15.3843C95.5222 14.6126 91.5009 15.0087 87.8464 16.5224C84.1919 18.0362 81.0683 20.5996 78.8707 23.8886C76.673 27.1776 75.5 31.0444 75.5 35C75.5 40.3043 77.6072 45.3914 81.3579 49.1421C85.1086 52.8929 90.1957 55 95.5001 55ZM95.5001 25C97.4779 25 99.4113 25.5865 101.056 26.6853C102.7 27.7841 103.982 29.3459 104.739 31.1732C105.496 33.0004 105.694 35.0111 105.308 36.9509C104.922 38.8907 103.97 40.6726 102.571 42.0711C101.173 43.4696 99.3908 44.422 97.451 44.8079C95.5111 45.1937 93.5005 44.9957 91.6732 44.2388C89.846 43.4819 88.2842 42.2002 87.1854 40.5557C86.0865 38.9112 85.5001 36.9778 85.5001 35C85.5001 32.3478 86.5536 29.8043 88.429 27.9289C90.3044 26.0536 92.8479 25 95.5001 25ZM137.569 87.925C137.188 88.1 132.888 89.975 125.275 89.975C116.619 89.975 103.681 87.55 87.3438 77.475C84.8572 84.5341 81.6287 91.3096 77.7126 97.6875C84.7465 99.8529 91.363 103.194 97.2813 107.569C109.2 116.656 115.5 129.594 115.5 145C115.5 146.326 114.973 147.598 114.036 148.536C113.098 149.473 111.826 150 110.5 150C109.174 150 107.902 149.473 106.965 148.536C106.027 147.598 105.5 146.326 105.5 145C105.5 118.938 83.8188 109.556 71.6626 106.344C71.3188 106.781 70.9626 107.225 70.6063 107.656C58.3313 122.531 42.9501 130.269 25.8376 130.269C23.8884 130.278 21.9401 130.188 20.0001 130C18.674 129.867 17.4549 129.213 16.611 128.182C15.767 127.151 15.3674 125.826 15.5001 124.5C15.6327 123.174 16.2866 121.955 17.3181 121.111C18.3495 120.267 19.674 119.867 21.0001 120C37.2001 121.613 51.2938 115.319 62.8751 101.25C70.6813 91.7875 76.0001 80.2438 78.6563 71.875C54.3313 57.7188 38.7938 69.7688 38.625 69.9C38.1157 70.3349 37.5242 70.6631 36.8856 70.865C36.247 71.0669 35.5744 71.1385 34.9076 71.0754C34.2408 71.0124 33.5935 70.816 33.0041 70.498C32.4146 70.18 31.8951 69.7468 31.4763 69.2242C31.0575 68.7015 30.748 68.1 30.5661 67.4554C30.3842 66.8109 30.3337 66.1363 30.4175 65.4718C30.5014 64.8073 30.7178 64.1665 31.0541 63.5873C31.3904 63.008 31.8396 62.5023 32.375 62.1C33.3125 61.35 55.6375 43.975 88.3188 66.2063C116.738 85.525 133.275 78.9 133.431 78.825C134.03 78.5421 134.68 78.3811 135.341 78.3513C136.003 78.3214 136.664 78.4234 137.286 78.6513C137.908 78.8792 138.479 79.2284 138.965 79.6786C139.451 80.1289 139.842 80.6712 140.117 81.2741C140.391 81.877 140.543 82.5285 140.564 83.1906C140.585 83.8527 140.473 84.5124 140.237 85.1312C140 85.75 139.643 86.3156 139.186 86.7952C138.729 87.2749 138.182 87.6589 137.575 87.925H137.569Z" fill="white"/>
</svg>
