<svg width="161" height="161" viewBox="0 0 161 161" fill="none" xmlns="http://www.w3.org/2000/svg">
<path d="M75.6732 35.5C75.6732 31.5444 76.8462 27.6776 79.0438 24.3886C81.2415 21.0996 84.365 18.5362 88.0196 17.0224C91.6741 15.5087 95.6954 15.1126 99.575 15.8843C103.455 16.656 107.018 18.5608 109.815 21.3579C112.612 24.1549 114.517 27.7186 115.289 31.5982C116.061 35.4778 115.665 39.4992 114.151 43.1537C112.637 46.8082 110.074 49.9318 106.785 52.1294C103.496 54.327 99.6289 55.5 95.6732 55.5C90.3689 55.5 85.2818 53.3929 81.5311 49.6421C77.7804 45.8914 75.6732 40.8043 75.6732 35.5ZM140.223 81.8C139.953 81.2002 139.567 80.6597 139.088 80.2092C138.609 79.7588 138.045 79.4074 137.43 79.1752C136.814 78.943 136.159 78.8344 135.501 78.8559C134.844 78.8773 134.197 79.0282 133.598 79.3C133.442 79.375 116.904 86 88.4857 66.6813C55.8045 44.4688 33.4857 61.825 32.542 62.575C32.0065 62.9773 31.5573 63.483 31.221 64.0623C30.8848 64.6415 30.6683 65.2823 30.5845 65.9468C30.5006 66.6113 30.5512 67.2859 30.733 67.9304C30.9149 68.575 31.2244 69.1765 31.6432 69.6992C32.062 70.2218 32.5816 70.655 33.171 70.973C33.7604 71.291 34.4078 71.4874 35.0745 71.5504C35.7413 71.6135 36.414 71.5419 37.0525 71.34C37.6911 71.1381 38.2826 70.8099 38.792 70.375C38.9545 70.2438 54.492 58.1875 78.8357 72.4188C76.1795 80.7625 70.8607 92.3063 63.0545 101.794C51.4545 115.844 37.3607 122.144 21.1795 120.544C19.8592 120.41 18.54 120.807 17.512 121.646C16.4841 122.485 15.8317 123.698 15.6982 125.019C15.5648 126.339 15.9613 127.658 16.8005 128.686C17.6397 129.714 18.8529 130.367 20.1732 130.5C22.1128 130.697 24.0612 130.795 26.0107 130.794C43.1232 130.794 58.5107 123.056 70.7795 108.181C71.1357 107.75 71.492 107.306 71.8357 106.869C83.992 110.056 105.673 119.438 105.673 145.5C105.673 146.826 106.2 148.098 107.138 149.036C108.075 149.973 109.347 150.5 110.673 150.5C111.999 150.5 113.271 149.973 114.209 149.036C115.146 148.098 115.673 146.826 115.673 145.5C115.673 130.094 109.373 117.156 97.4545 108.088C91.5362 103.713 84.9197 100.372 77.8857 98.2063C81.8123 91.8316 85.0513 85.0583 87.5482 78C103.886 88.0563 116.823 90.5 125.479 90.5C133.092 90.5 137.392 88.625 137.773 88.45C138.372 88.1754 138.91 87.7853 139.357 87.302C139.805 86.8188 140.152 86.2519 140.38 85.634C140.608 85.0161 140.711 84.3594 140.684 83.7014C140.657 83.0434 140.501 82.3973 140.223 81.8Z" fill="white"/>
</svg>
