<svg width="161" height="161" viewBox="0 0 161 161" fill="none" xmlns="http://www.w3.org/2000/svg">
<g clip-path="url(#clip0_26_3332)">
<path d="M100.673 87.9998V46.0311C100.668 45.5209 100.818 45.0212 101.105 44.5991C101.391 44.177 101.8 43.8526 102.276 43.6696C102.753 43.4866 103.273 43.4537 103.769 43.5753C104.264 43.6969 104.711 43.9671 105.048 44.3498L139.423 82.1373C140.213 83.0048 140.673 84.1225 140.722 85.2948C140.771 86.4671 140.407 87.6193 139.692 88.5498C139.202 89.1682 138.576 89.6657 137.863 90.0038C137.15 90.3419 136.369 90.5116 135.58 90.4998H103.173C102.51 90.4998 101.874 90.2364 101.406 89.7676C100.937 89.2987 100.673 88.6629 100.673 87.9998ZM155.18 108.331C154.771 107.483 154.132 106.767 153.334 106.266C152.537 105.765 151.615 105.5 150.673 105.5H90.6733V5.49982C90.6677 4.46919 90.3438 3.46547 89.7459 2.62602C89.1479 1.78657 88.3052 1.1524 87.333 0.810313C86.3607 0.468226 85.3066 0.434933 84.3147 0.71499C83.3228 0.995047 82.4418 1.57477 81.792 2.37482L16.792 82.3748C16.2044 83.1087 15.8357 83.9934 15.728 84.9274C15.6204 85.8613 15.7782 86.8067 16.1835 87.6551C16.5887 88.5034 17.2249 89.2203 18.0191 89.7234C18.8132 90.2266 19.7332 90.4957 20.6733 90.4998H80.6733V105.5H10.6733C9.73103 105.499 8.80778 105.765 8.00995 106.266C7.21212 106.768 6.57218 107.484 6.16391 108.333C5.75563 109.183 5.59562 110.13 5.70234 111.066C5.80905 112.002 6.17813 112.889 6.76705 113.625L25.267 136.75C26.2018 137.922 27.3894 138.869 28.7411 139.518C30.0928 140.167 31.5737 140.503 33.0733 140.5H128.273C129.773 140.503 131.254 140.167 132.606 139.518C133.957 138.869 135.145 137.922 136.08 136.75L154.58 113.625C155.168 112.889 155.537 112.001 155.643 111.065C155.749 110.128 155.589 109.18 155.18 108.331Z" fill="white"/>
</g>
<defs>
<clipPath id="clip0_26_3332">
<rect width="160" height="160" fill="white" transform="translate(0.67334 0.5)"/>
</clipPath>
</defs>
</svg>
