<svg width="161" height="160" viewBox="0 0 161 160" fill="none" xmlns="http://www.w3.org/2000/svg">
<path d="M155.006 107.831C154.598 106.983 153.958 106.267 153.161 105.766C152.364 105.265 151.441 105 150.5 105H90.5V89.9998H135.5C136.468 89.9997 137.416 89.7183 138.228 89.1899C139.039 88.6614 139.68 87.9086 140.072 87.0229C140.464 86.1372 140.59 85.1568 140.435 84.2007C140.28 83.2446 139.851 82.3541 139.2 81.6373L90.5 28.0686V4.99982C90.4944 3.96919 90.1705 2.96547 89.5725 2.12602C88.9746 1.28657 88.1318 0.6524 87.1596 0.310313C86.1874 -0.031774 85.1332 -0.0650671 84.1414 0.21499C83.1495 0.495047 82.2684 1.07477 81.6187 1.87482L16.6187 81.8748C16.0311 82.6087 15.6623 83.4934 15.5547 84.4274C15.447 85.3613 15.6049 86.3067 16.0101 87.1551C16.4154 88.0034 17.0516 88.7203 17.8457 89.2234C18.6399 89.7266 19.5598 89.9957 20.5 89.9998H80.5V105H10.5C9.55769 104.999 8.63444 105.265 7.83661 105.766C7.03878 106.268 6.39884 106.984 5.99057 107.833C5.58229 108.683 5.42229 109.63 5.529 110.566C5.63571 111.502 6.00479 112.389 6.59371 113.125L25.0937 136.25C26.0285 137.422 27.216 138.369 28.5677 139.018C29.9195 139.667 31.4004 140.003 32.9 140H128.1C129.6 140.003 131.08 139.667 132.432 139.018C133.784 138.369 134.971 137.422 135.906 136.25L154.406 113.125C154.995 112.389 155.364 111.501 155.47 110.565C155.576 109.628 155.415 108.68 155.006 107.831ZM124.2 79.9998H90.5V42.9311L124.2 79.9998ZM31.0062 79.9998L80.5 19.0811V79.9998H31.0062ZM128.1 130H32.9L20.9 115H140.1L128.1 130Z" fill="white"/>
</svg>
